<?xml version="1.0" encoding="UTF-8"?>
<svg xmlns="http://www.w3.org/2000/svg" xmlns:xlink="http://www.w3.org/1999/xlink" version="1.1" id="Capa_1" x="0px" y="0px" viewBox="0 0 96.9 55.1" style="enable-background:new 0 0 96.9 55.1;" xml:space="preserve">
<style type="text/css">
	.st0{fill:#488041;}
	.st1{fill:#69AF17;}
	.st2{fill:#00328C;}
</style>
<g>
	<path class="st0" d="M58.5,9c0,0-2.8-4.3-12.2-5.2c-14.4-1.3-23.9,8.7-23.9,8.7s8.5-8.2,16.3-9.8C46.3,1.1,53,1.6,59.3,4.4   c6.3,2.8,2.8,4.3,2.8,4.3L58.5,9z"></path>
	<polygon class="st0" points="74,1.4 71.6,2.2 68.1,4.4 69.2,4.8  "></polygon>
	<path class="st1" d="M22.1,12.8c0,0,8.2-8.2,18.4-9.4c15.2-1.8,19.9,5.1,19.9,5.1l-9.8,2.1l24.4,7.9L74,1.4l-4.8,3.4   C69.2,4.8,44-10.2,22.1,12.8z"></path>
	<polygon class="st0" points="74.9,18.5 73.2,19.3 48.9,11.5 50.5,10.6  "></polygon>
	<path class="st0" d="M38,46.1c0,0,2.8,4.3,12.2,5.2c14.4,1.3,23.9-8.7,23.9-8.7s-8.6,8.2-16.3,9.8c-7.7,1.6-14.4,1.1-20.7-1.6   c-6.3-2.8-2.8-4.3-2.8-4.3L38,46.1z"></path>
	<polygon class="st0" points="22.5,53.7 24.9,52.9 28.4,50.6 27.4,50.3  "></polygon>
	<path class="st1" d="M74.4,42.3c0,0-8.2,8.2-18.4,9.4c-15.2,1.8-19.9-5.1-19.9-5.1l9.8-2.1l-24.4-7.9l0.9,17.1l4.8-3.4   C27.3,50.3,52.6,65.2,74.4,42.3z"></path>
	<polygon class="st0" points="21.6,36.6 23.3,35.8 47.7,43.6 46,44.5  "></polygon>
	<path class="st2" d="M3.2,30.5c-0.5,0-0.9-0.1-1.3-0.2c-0.4-0.2-0.7-0.4-1-0.7c-0.3-0.3-0.5-0.6-0.7-1C0.1,28.2,0,27.7,0,27.3   c0-0.5,0.1-0.9,0.2-1.3c0.1-0.4,0.4-0.7,0.6-1c0.3-0.3,0.6-0.5,1-0.7c0.4-0.2,0.8-0.2,1.3-0.2h6.8c0.2,0,0.3,0.1,0.3,0.2v0.6   c0,0.2-0.1,0.3-0.3,0.3H5.4c-0.2,0-0.4,0-0.5,0.1c-0.1,0-0.3,0.1-0.4,0.2c-0.1,0.1-0.2,0.3-0.2,0.4c0,0.2-0.1,0.4-0.1,0.7v1   c0,0.3,0,0.6,0.1,0.8c0,0.2,0.1,0.4,0.2,0.5c0.1,0.1,0.2,0.2,0.4,0.3c0.1,0.1,0.3,0.1,0.5,0.1H10c0.2,0,0.3,0.1,0.3,0.2v0.6   c0,0.2-0.1,0.2-0.3,0.2H3.2z M4.3,27.5c-0.2,0-0.1-0.1-0.1-0.2v-0.6c0-0.2-0.1-0.2,0.1-0.2h5.6c0.2,0,0.3,0.1,0.3,0.2v0.8   c0,0.1-0.1,0.2-0.3,0.2H4.3z"></path>
	<path class="st2" d="M26.6,30.5c-0.5,0-0.9-0.1-1.3-0.2c-0.4-0.2-0.7-0.4-1-0.7c-0.3-0.3-0.5-0.6-0.7-1c-0.2-0.4-0.2-0.8-0.2-1.3   c0-0.5,0.1-0.9,0.2-1.3c0.1-0.4,0.4-0.7,0.6-1c0.3-0.3,0.6-0.5,1-0.7c0.4-0.2,0.8-0.2,1.3-0.2h6.8c0.2,0,0.3,0.1,0.3,0.2v0.6   c0,0.2-0.1,0.3-0.3,0.3h-4.5c-0.2,0-0.4,0-0.5,0.1c-0.1,0-0.3,0.1-0.4,0.2c-0.1,0.1-0.2,0.3-0.2,0.4c0,0.2-0.1,0.4-0.1,0.7v1   c0,0.3,0,0.6,0.1,0.8c0,0.2,0.1,0.4,0.2,0.5c0.1,0.1,0.2,0.2,0.3,0.3c0.1,0.1,0.3,0.1,0.5,0.1h4.5c0.2,0,0.3,0.1,0.3,0.2v0.6   c0,0.2-0.1,0.2-0.3,0.2H26.6z M27.7,27.5c-0.2,0-0.1-0.1-0.1-0.2v-0.6c0-0.2-0.1-0.2,0.1-0.2h5.6c0.2,0,0.3,0.1,0.3,0.2v0.8   c0,0.1-0.1,0.2-0.3,0.2H27.7z"></path>
	<path class="st2" d="M21.6,30.5c-0.2,0-0.4,0-0.5,0c-0.1,0-0.3-0.1-0.5-0.2l-7.7-2.8v2.7c0,0.2-0.1,0.2-0.3,0.2h-1.3   c-0.2,0-0.3-0.1-0.3-0.2v-5.9c0-0.2,0.1-0.2,0.3-0.2h1.2c0.1,0,0.2,0,0.3,0c0.1,0,0.2,0,0.2,0c0.1,0,0.2,0,0.2,0.1   c0.1,0,0.2,0,0.3,0.1l7.2,2.7v-2.6c0-0.2,0.1-0.2,0.3-0.2h1.3c0.2,0,0.3,0.1,0.3,0.2v5.9c0,0.2-0.1,0.2-0.3,0.2H21.6z"></path>
	<path class="st2" d="M42.9,30.5c-0.3,0-0.5-0.1-0.6-0.2l-3.2-3c-0.1,0-0.6,0-0.6,0c-0.1,0-0.2,0.1,0-0.1l0-0.4   c0-0.2-0.1-0.2,0.1-0.2h2.2c0.3,0,0.5-0.1,0.7-0.2c0.2-0.1,0.2-0.3,0.2-0.5c0-0.4-0.3-0.6-0.9-0.6h-2.2v5c0,0.2-0.1,0.2-0.3,0.2H35   c-0.2,0-0.3-0.1-0.3-0.2v-5.9c0-0.2,0.1-0.2,0.3-0.2h8.5c0.3,0,0.6,0,0.8,0.1c0.3,0.1,0.5,0.2,0.7,0.3c0.2,0.1,0.3,0.3,0.4,0.5   c0.1,0.2,0.2,0.4,0.2,0.7c0,0.3,0,0.5-0.1,0.7c-0.1,0.2-0.2,0.4-0.4,0.5c-0.2,0.1-0.4,0.3-0.6,0.4c-0.2,0.1-0.5,0.2-0.7,0.2   l2.7,2.6c0,0,0.1,0.1,0.1,0.1c0,0,0,0.1,0,0.1c0,0-0.1,0-0.1,0H42.9z"></path>
	<path class="st2" d="M49.2,30.5c-0.5,0-0.9-0.1-1.3-0.2c-0.4-0.2-0.7-0.4-1-0.7c-0.3-0.3-0.5-0.6-0.7-1c-0.2-0.4-0.2-0.8-0.2-1.3   c0-0.5,0.1-0.9,0.2-1.3c0.2-0.4,0.4-0.7,0.6-1c0.3-0.3,0.6-0.5,1-0.7c0.4-0.2,0.8-0.2,1.3-0.2h6.8c0.2,0,0.3,0.1,0.3,0.2v0.6   c0,0.2-0.1,0.3-0.3,0.3h-4.5c-0.2,0-0.4,0-0.5,0.1c-0.1,0-0.3,0.1-0.4,0.2c-0.1,0.1-0.2,0.3-0.2,0.4c0,0.2-0.1,0.4-0.1,0.7v1   c0,0.3,0,0.6,0.1,0.8c0,0.2,0.1,0.4,0.2,0.5c0.1,0.1,0.2,0.2,0.4,0.3c0.1,0.1,0.3,0.1,0.5,0.1h1.7v-2.9c0-0.2,0.1-0.3,0.3-0.3h2.8   c0.2,0,0.3,0.1,0.3,0.3v3.7c0,0.2-0.1,0.2-0.3,0.2H49.2z"></path>
	<path class="st2" d="M57.8,30.5c-0.2,0-0.2-0.1-0.2-0.2v-5.9c0-0.2,0.1-0.2,0.2-0.2h3.3c0.2,0,0.2,0.1,0.2,0.2v5.9   c0,0.2-0.1,0.2-0.2,0.2H57.8z"></path>
	<path class="st2" d="M65.5,30.5c-0.5,0-0.9-0.1-1.3-0.2c-0.4-0.2-0.7-0.4-1-0.7c-0.3-0.3-0.5-0.6-0.7-1c-0.2-0.4-0.2-0.8-0.2-1.3   c0-0.5,0.1-0.9,0.2-1.3c0.2-0.4,0.4-0.7,0.6-1c0.3-0.3,0.6-0.5,1-0.7c0.4-0.2,0.8-0.2,1.3-0.2h6.8c0.2,0,0.3,0.1,0.3,0.2v0.6   c0,0.2-0.1,0.3-0.3,0.3h-4.5c-0.2,0-0.4,0-0.5,0.1c-0.1,0-0.3,0.1-0.4,0.2c-0.1,0.1-0.2,0.3-0.2,0.4c0,0.2-0.1,0.4-0.1,0.7v1   c0,0.3,0,0.6,0.1,0.8c0,0.2,0.1,0.4,0.2,0.5c0.1,0.1,0.2,0.2,0.4,0.3c0.1,0.1,0.3,0.1,0.5,0.1h1.7v-2.9c0-0.2,0.1-0.3,0.2-0.3h2.8   c0.2,0,0.3,0.1,0.3,0.3v3.7c0,0.2-0.1,0.2-0.3,0.2H65.5z"></path>
	<path class="st2" d="M87.7,30.5c-0.2,0-0.3-0.1-0.3-0.2v-0.6c0-0.2,0.1-0.2,0.3-0.2h5.4l-4.6-2.1c-0.2-0.1-0.4-0.2-0.6-0.4   c-0.2-0.1-0.3-0.2-0.4-0.4c-0.1-0.1-0.1-0.3-0.2-0.4c0-0.2,0-0.3,0-0.5c0-0.2,0-0.4,0.1-0.6c0.1-0.2,0.2-0.4,0.4-0.5   s0.4-0.3,0.6-0.3c0.2-0.1,0.5-0.1,0.8-0.1h7.1c0.2,0,0.3,0.1,0.3,0.2v0.6c0,0.2-0.1,0.3-0.3,0.3h-5.2l4.6,2.1   c0.2,0.1,0.5,0.2,0.6,0.3c0.1,0.1,0.3,0.2,0.4,0.4c0.1,0.1,0.1,0.3,0.2,0.4c0,0.2,0,0.3,0,0.5c0,0.2,0,0.4-0.1,0.6   c-0.1,0.2-0.2,0.4-0.4,0.5c-0.2,0.1-0.4,0.3-0.6,0.3c-0.2,0.1-0.5,0.1-0.8,0.1H87.7z"></path>
	<g>
		<g>
			<path class="st2" d="M75.5,28.6h4.4c0.2,0,0.3,0.1,0.3,0.2v0.6c0,0.2-0.1,0.3-0.3,0.3h-6"></path>
			<g>
				<path class="st2" d="M79.4,24.3c0.1-0.1,0.1-0.1,0.2-0.1c0.1,0,0.1,0,0.2,0h0.6c0.2,0,0.3,0.1,0.4,0.2l6,5.9      c0.1,0,0.1,0.1,0.1,0.2c0,0.1-0.1,0.1-0.2,0.1h-4.1c-0.2,0-0.4-0.1-0.5-0.2l-3.8-3.7l-3.9,3.7c-0.1,0.1-0.1,0.1-0.2,0.1      c-0.1,0-0.2,0-0.3,0h-0.5c-0.1,0-0.2-0.1-0.2-0.2c0-0.1,0-0.1,0.1-0.1L79.4,24.3z"></path>
			</g>
		</g>
	</g>
</g>
</svg>
