<?xml version="1.0" encoding="utf-8"?>
<!-- Generator: Adobe Illustrator 21.1.0, SVG Export Plug-In . SVG Version: 6.00 Build 0)  -->
<svg version="1.1" id="Capa_1" xmlns="http://www.w3.org/2000/svg" xmlns:xlink="http://www.w3.org/1999/xlink" x="0px" y="0px"
	 viewBox="0 0 138.9 79" style="enable-background:new 0 0 138.9 79;" xml:space="preserve">
<style type="text/css">
	.st0{fill:#488041;}
	.st1{fill:#69AF17;}
	.st2{fill:#FFFFFF;}
</style>
<g>
	<path class="st0" d="M83.9,12.9c0,0-4-6.2-17.6-7.4C45.7,3.7,32,18,32,18S44.3,6.2,55.4,3.9C66.4,1.6,76,2.3,85.1,6.2
		c9.1,3.9,4,6.2,4,6.2L83.9,12.9z"/>
	<polygon class="st0" points="106.1,2 102.7,3.1 97.7,6.4 99.2,6.9 	"/>
	<path class="st1" d="M31.7,18.3c0,0,11.8-11.8,26.3-13.5c21.8-2.6,28.5,7.4,28.5,7.4l-14.1,3l35,11.4l-1.3-24.6l-6.9,4.9
		C99.2,6.9,63.1-14.6,31.7,18.3z"/>
	<polygon class="st0" points="107.4,26.5 105,27.7 70.1,16.5 72.5,15.1 	"/>
	<path class="st0" d="M54.5,66.1c0,0,4,6.2,17.6,7.4C92.7,75.3,106.4,61,106.4,61S94.1,72.8,83.1,75.1c-11.1,2.3-20.6,1.6-29.7-2.4
		c-9.1-3.9-4-6.2-4-6.2L54.5,66.1z"/>
	<polygon class="st0" points="32.3,77 35.7,75.8 40.7,72.6 39.2,72.1 	"/>
	<path class="st1" d="M106.7,60.7c0,0-11.8,11.8-26.3,13.5c-21.8,2.6-28.5-7.4-28.5-7.4l14.1-3L31,52.5L32.3,77l6.9-4.9
		C39.2,72.1,75.4,93.6,106.7,60.7z"/>
	<polygon class="st0" points="31,52.5 33.4,51.3 68.4,62.5 66,63.9 	"/>
	<path class="st2" d="M4.6,43.7c-0.7,0-1.3-0.1-1.8-0.3c-0.6-0.2-1-0.5-1.4-1c-0.4-0.4-0.7-0.9-1-1.4C0.1,40.4,0,39.8,0,39.1
		c0-0.7,0.1-1.3,0.3-1.8c0.2-0.6,0.5-1,0.9-1.4c0.4-0.4,0.9-0.7,1.4-1c0.6-0.2,1.2-0.3,1.9-0.3h9.7c0.3,0,0.4,0.1,0.4,0.3v0.9
		c0,0.2-0.1,0.4-0.4,0.4H7.8c-0.3,0-0.6,0-0.8,0.1c-0.2,0.1-0.4,0.2-0.5,0.3c-0.1,0.2-0.2,0.4-0.3,0.6c-0.1,0.3-0.1,0.6-0.1,1v1.5
		c0,0.5,0,0.8,0.1,1.2c0.1,0.3,0.2,0.6,0.3,0.7c0.1,0.2,0.3,0.3,0.5,0.4c0.2,0.1,0.4,0.1,0.7,0.1h6.5c0.2,0,0.4,0.1,0.4,0.4v0.8
		c0,0.2-0.1,0.4-0.4,0.4H4.6z M6.2,39.5c-0.2,0-0.2-0.1-0.2-0.4v-0.9c0-0.2-0.1-0.3,0.2-0.3h8c0.2,0,0.4,0.1,0.4,0.2v1.1
		c0,0.2-0.1,0.2-0.4,0.2H6.2z"/>
	<path class="st2" d="M38.1,43.7c-0.7,0-1.3-0.1-1.8-0.3c-0.6-0.2-1-0.5-1.4-1c-0.4-0.4-0.7-0.9-1-1.4c-0.2-0.6-0.3-1.2-0.3-1.8
		c0-0.7,0.1-1.3,0.3-1.8c0.2-0.6,0.5-1,0.9-1.4c0.4-0.4,0.9-0.7,1.4-1c0.6-0.2,1.2-0.3,1.9-0.3h9.7c0.2,0,0.4,0.1,0.4,0.3v0.9
		c0,0.2-0.1,0.4-0.4,0.4h-6.5c-0.3,0-0.6,0-0.8,0.1c-0.2,0.1-0.4,0.2-0.5,0.3c-0.1,0.2-0.2,0.4-0.3,0.6c-0.1,0.3-0.1,0.6-0.1,1v1.5
		c0,0.5,0,0.8,0.1,1.2c0.1,0.3,0.2,0.6,0.3,0.7c0.1,0.2,0.3,0.3,0.5,0.4c0.2,0.1,0.5,0.1,0.7,0.1h6.5c0.2,0,0.4,0.1,0.4,0.4v0.8
		c0,0.2-0.1,0.4-0.4,0.4H38.1z M39.8,39.5c-0.3,0-0.2-0.1-0.2-0.4v-0.9c0-0.2-0.1-0.3,0.2-0.3h8c0.2,0,0.4,0.1,0.4,0.2v1.1
		c0,0.2-0.1,0.2-0.4,0.2H39.8z"/>
	<path class="st2" d="M31,43.7c-0.3,0-0.5,0-0.7,0c-0.2,0-0.5-0.1-0.8-0.2l-11.1-4v3.9c0,0.2-0.1,0.4-0.4,0.4h-1.8
		c-0.3,0-0.4-0.1-0.4-0.4v-8.4c0-0.2,0.1-0.3,0.4-0.3H18c0.1,0,0.3,0,0.4,0c0.1,0,0.2,0,0.4,0c0.1,0,0.2,0.1,0.3,0.1
		c0.1,0,0.2,0.1,0.4,0.1l10.3,3.8v-3.7c0-0.2,0.1-0.3,0.4-0.3H32c0.2,0,0.4,0.1,0.4,0.3v8.4c0,0.2-0.1,0.4-0.4,0.4H31z"/>
	<path class="st2" d="M61.5,43.7c-0.4,0-0.7-0.1-0.9-0.4L56,39c-0.1,0-0.9,0-0.9,0c-0.1,0-0.3,0.1,0-0.1l0-0.6
		c0-0.2-0.1-0.3,0.1-0.3h3.2c0.4,0,0.8-0.1,1-0.2c0.2-0.2,0.3-0.4,0.3-0.7c0-0.6-0.4-0.9-1.3-0.9h-3.1v7.2c0,0.2-0.1,0.4-0.4,0.4
		h-4.8c-0.2,0-0.4-0.1-0.4-0.4v-8.4c0-0.2,0.1-0.3,0.4-0.3h12.1c0.4,0,0.8,0.1,1.2,0.2c0.4,0.1,0.7,0.3,0.9,0.5
		c0.3,0.2,0.5,0.4,0.6,0.7c0.1,0.3,0.2,0.6,0.2,1c0,0.4-0.1,0.7-0.2,1c-0.1,0.3-0.3,0.6-0.6,0.8c-0.2,0.2-0.5,0.4-0.9,0.5
		c-0.3,0.1-0.7,0.2-1.1,0.3l3.8,3.8c0.1,0.1,0.1,0.1,0.1,0.2c0,0.1,0,0.1-0.1,0.2c0,0-0.1,0.1-0.2,0.1H61.5z"/>
	<path class="st2" d="M70.5,43.7c-0.7,0-1.3-0.1-1.8-0.3c-0.6-0.2-1-0.5-1.4-1c-0.4-0.4-0.7-0.9-1-1.4c-0.2-0.6-0.3-1.2-0.3-1.8
		c0-0.7,0.1-1.3,0.3-1.8c0.2-0.6,0.5-1,0.9-1.4c0.4-0.4,0.9-0.7,1.4-1c0.6-0.2,1.2-0.3,1.9-0.3h9.7c0.2,0,0.4,0.1,0.4,0.3v0.9
		c0,0.2-0.1,0.4-0.4,0.4h-6.4c-0.3,0-0.6,0-0.8,0.1c-0.2,0.1-0.4,0.2-0.5,0.3c-0.1,0.2-0.2,0.4-0.3,0.6c-0.1,0.3-0.1,0.6-0.1,1v1.5
		c0,0.5,0,0.8,0.1,1.2c0.1,0.3,0.2,0.6,0.3,0.7c0.1,0.2,0.3,0.3,0.5,0.4c0.2,0.1,0.4,0.1,0.7,0.1h2.5V38c0-0.2,0.1-0.4,0.4-0.4h4
		c0.2,0,0.4,0.1,0.4,0.4v5.3c0,0.2-0.1,0.4-0.4,0.4H70.5z"/>
	<path class="st2" d="M82.9,43.7c-0.2,0-0.4-0.1-0.4-0.4v-8.4c0-0.2,0.1-0.3,0.4-0.3h4.8c0.2,0,0.4,0.1,0.4,0.3v8.4
		c0,0.2-0.1,0.4-0.4,0.4H82.9z"/>
	<path class="st2" d="M93.9,43.7c-0.7,0-1.3-0.1-1.8-0.3c-0.6-0.2-1-0.5-1.4-1c-0.4-0.4-0.7-0.9-0.9-1.4c-0.2-0.6-0.3-1.2-0.3-1.8
		c0-0.7,0.1-1.3,0.3-1.8c0.2-0.6,0.5-1,0.9-1.4c0.4-0.4,0.9-0.7,1.4-1c0.6-0.2,1.2-0.3,1.9-0.3h9.7c0.2,0,0.4,0.1,0.4,0.3v0.9
		c0,0.2-0.1,0.4-0.4,0.4h-6.4c-0.3,0-0.6,0-0.8,0.1c-0.2,0.1-0.4,0.2-0.5,0.3c-0.1,0.2-0.2,0.4-0.3,0.6c-0.1,0.3-0.1,0.6-0.1,1v1.5
		c0,0.5,0,0.8,0.1,1.2c0.1,0.3,0.2,0.6,0.3,0.7c0.1,0.2,0.3,0.3,0.5,0.4c0.2,0.1,0.4,0.1,0.7,0.1h2.5V38c0-0.2,0.1-0.4,0.4-0.4h4
		c0.3,0,0.4,0.1,0.4,0.4v5.3c0,0.2-0.1,0.4-0.4,0.4H93.9z"/>
	<path class="st2" d="M125.8,43.7c-0.2,0-0.4-0.1-0.4-0.4v-0.8c0-0.2,0.1-0.4,0.4-0.4h7.8l-6.5-3c-0.4-0.2-0.6-0.3-0.9-0.5
		c-0.2-0.2-0.4-0.4-0.5-0.5c-0.1-0.2-0.2-0.4-0.3-0.6c0-0.2-0.1-0.4-0.1-0.7c0-0.3,0.1-0.6,0.2-0.9c0.1-0.3,0.3-0.5,0.5-0.7
		s0.5-0.4,0.8-0.5c0.3-0.1,0.7-0.2,1.2-0.2h10.2c0.3,0,0.4,0.1,0.4,0.3v0.9c0,0.2-0.1,0.4-0.4,0.4h-7.5l6.5,3
		c0.4,0.2,0.7,0.3,0.9,0.5c0.2,0.2,0.4,0.4,0.5,0.5c0.1,0.2,0.2,0.4,0.2,0.6c0,0.2,0.1,0.4,0.1,0.7c0,0.3-0.1,0.6-0.2,0.8
		c-0.1,0.3-0.3,0.5-0.5,0.7c-0.2,0.2-0.5,0.4-0.8,0.5c-0.3,0.1-0.7,0.2-1.2,0.2H125.8z"/>
	<g>
		<g>
			<path class="st2" d="M108.2,41.1h6.3c0.2,0,0.4,0.1,0.4,0.4v0.8c0,0.2-0.1,0.4-0.4,0.4h-8.6"/>
			<g>
				<path class="st2" d="M113.9,34.8c0.1-0.1,0.2-0.2,0.3-0.2c0.1,0,0.2-0.1,0.3-0.1h0.9c0.2,0,0.4,0.1,0.6,0.3l8.6,8.4
					c0.1,0.1,0.1,0.1,0.1,0.2c0,0.1-0.1,0.2-0.3,0.2h-5.8c-0.3,0-0.5-0.1-0.7-0.3l-5.4-5.4l-5.6,5.4c-0.1,0.1-0.2,0.2-0.3,0.2
					c-0.1,0-0.2,0.1-0.4,0.1h-0.8c-0.2,0-0.3-0.1-0.3-0.2c0-0.1,0-0.1,0.1-0.2L113.9,34.8z"/>
			</g>
		</g>
	</g>
</g>
</svg>
